<svg id="Calque_1" data-name="Calque 1" xmlns="http://www.w3.org/2000/svg" width="403.95mm" height="68.96mm" viewBox="0 0 1145.06 195.48"><defs><style>.cls-1{fill:#1d1d1b;}.cls-2{fill:#f7941e;}.cls-3{fill:#1c1d1b;}.cls-4{fill:none;stroke:#e5e5e5;}</style></defs><title>logo_mass</title><rect class="cls-1" x="175.23" y="4.21" width="19.31" height="76.87"/><rect class="cls-1" x="201.08" y="4.21" width="19.32" height="76.87"/><path class="cls-1" d="M282.14,56.06q0-11-3.25-17.85a23.28,23.28,0,0,0-9.54-10.48q-6.25-3.63-17-3.62-13.3,0-20.86,8.08T223.9,53.32a32.52,32.52,0,0,0,3.76,16,24.36,24.36,0,0,0,9.49,9.9q5.73,3.1,15.71,3.1,11.5,0,17.65-3.64t10.52-12l-19-2a13.9,13.9,0,0,1-3.34,3.54,10,10,0,0,1-5.39,1.6A8.71,8.71,0,0,1,246,66.14c-1.32-1.69-2.15-4.25-2.51-7.67h38.63V56.06Zm-38.57-7.78c0.31-3.32,1.05-5.81,2.22-7.49a8.47,8.47,0,0,1,7.33-4,8.33,8.33,0,0,1,6.42,2.66c1.61,1.79,2.61,4.74,3,8.86h-19Z"/><path class="cls-1" d="M337.6,81.08h-18V72A27.8,27.8,0,0,1,311.44,80a19.9,19.9,0,0,1-10,2.34c-5.3,0-9.47-1.74-12.46-5.26S284.4,68.1,284.4,60.8V25.35h19.42V56q0,5.25,1.73,7.45a5.91,5.91,0,0,0,4.9,2.21,6.76,6.76,0,0,0,5.63-2.93c1.45-2,2.2-5.5,2.2-10.56V25.35H337.6V81.08Z"/><path class="cls-1" d="M343.09,25.35h18.08v9.13q2.61-5.92,5.38-8.14a10.63,10.63,0,0,1,6.85-2.22A19,19,0,0,1,382.72,27l-6,15.23a14,14,0,0,0-5.4-1.6,6.48,6.48,0,0,0-5.86,3.48q-3,4.89-3,18.25V81.08h-19.4V25.35Z"/><path class="cls-1" d="M980.5,59.15l18.31,2.24a29.88,29.88,0,0,1-5,11A23.67,23.67,0,0,1,985,79.64c-3.59,1.72-8.11,2.56-13.66,2.56A45.9,45.9,0,0,1,958,80.56a22.51,22.51,0,0,1-9.15-5.35,26.9,26.9,0,0,1-6-8.66c-1.43-3.33-2.17-7.71-2.17-13.2A34,34,0,0,1,943.34,39a25.92,25.92,0,0,1,5.31-7.51,24.33,24.33,0,0,1,6.89-5C959.28,24.87,964.11,24,970,24c8.2,0,14.47,1.62,18.76,4.88s7.32,8,9.06,14.25l-18.21,2.68a9.46,9.46,0,0,0-16.76-3.36c-2,2.49-2.93,6.31-2.93,11.4,0,4.55,1,8,2.93,10.36a9.28,9.28,0,0,0,7.47,3.53,9.78,9.78,0,0,0,6.36-2.1,12.78,12.78,0,0,0,3.83-6.5"/><path class="cls-1" d="M1008,75.39c5,4.56,11.54,6.81,19.63,6.81q13.61,0,21.31-8.2t7.71-21.05q0-11.44-6.22-19.24Q1042.71,24,1027.6,24q-13.23,0-21,8.26t-7.79,21q0,13.68,9.19,22.13m12.87-33.12a8.43,8.43,0,0,1,7-3.61,8.12,8.12,0,0,1,6.68,3.55q2.7,3.53,2.7,10.76,0,7.77-2.65,11.29a8.45,8.45,0,0,1-13.73-.06c-1.82-2.38-2.72-6-2.72-11s0.92-8.54,2.76-10.92"/><path class="cls-1" d="M1059.61,25.25h18v8.16a26.12,26.12,0,0,1,7.83-7.24A19.63,19.63,0,0,1,1095,24c4,0,7.2.79,9.54,2.36a17.29,17.29,0,0,1,5.72,7c3-3.64,5.83-6.11,8.32-7.44a20,20,0,0,1,9.28-2c5.4,0,9.64,1.78,12.66,5.32s4.57,9.11,4.57,16.65V81h-19.33V49.28c0-2.52-.42-4.37-1.31-5.61a5.76,5.76,0,0,0-4.87-2.86,6.73,6.73,0,0,0-5.57,2.71c-1.38,1.83-2.08,4.74-2.08,8.75V81h-19.32V50.35a20.79,20.79,0,0,0-.37-5,6.62,6.62,0,0,0-2.14-3.4,5.31,5.31,0,0,0-3.54-1.27,6.61,6.61,0,0,0-5.46,2.76c-1.44,1.85-2.14,4.9-2.14,9.11V81h-19.31V25.25Z"/><path class="cls-1" d="M940.85,72.59a9.5,9.5,0,1,1-9.52-9.51,9.51,9.51,0,0,1,9.52,9.51"/><path class="cls-2" d="M169.72,10.43A10.43,10.43,0,1,1,159.31,0a10.42,10.42,0,0,1,10.41,10.43"/><path class="cls-3" d="M0,25.35H18v8.16a26.22,26.22,0,0,1,7.84-7.24,19.57,19.57,0,0,1,9.55-2.16c4,0,7.2.79,9.53,2.36a17.24,17.24,0,0,1,5.73,7q4.56-5.46,8.32-7.44a20,20,0,0,1,9.27-2q8.13,0,12.68,5.32t4.56,16.65v35H66.12V49.38c0-2.52-.44-4.37-1.33-5.61a5.73,5.73,0,0,0-4.87-2.86,6.68,6.68,0,0,0-5.54,2.71c-1.41,1.83-2.09,4.74-2.09,8.75V81.08H32.95V50.45a20.42,20.42,0,0,0-.37-5,6.68,6.68,0,0,0-2.13-3.4,5.33,5.33,0,0,0-3.56-1.27,6.57,6.57,0,0,0-5.44,2.76c-1.41,1.85-2.13,4.9-2.13,9.11v28.4H0V25.35Z"/><path class="cls-1" d="M146.32,56.06q0-11-3.28-17.85a23.15,23.15,0,0,0-9.52-10.48q-6.25-3.63-17-3.62-13.28,0-20.86,8.08T88.06,53.32a32.54,32.54,0,0,0,3.77,16,24.33,24.33,0,0,0,9.49,9.9Q107,82.3,117,82.3q11.49,0,17.64-3.64t10.51-12l-19-2a13.87,13.87,0,0,1-3.35,3.54,10,10,0,0,1-5.39,1.6,8.74,8.74,0,0,1-7.27-3.63c-1.31-1.69-2.16-4.25-2.5-7.67h38.63V56.06Zm-38.58-7.78c0.31-3.32,1-5.81,2.22-7.49a8.46,8.46,0,0,1,7.33-4,8.23,8.23,0,0,1,6.41,2.66c1.61,1.79,2.63,4.74,3,8.86h-19Z"/><path class="cls-1" d="M168.8,25.35V81.08H149.48V25.35a21.26,21.26,0,0,0,9.8,2.31,19.4,19.4,0,0,0,9.53-2.31"/><path class="cls-1" d="M435.43,58.64h-38q0.51,5.11,2.47,7.62a8.59,8.59,0,0,0,7.17,3.6,9.86,9.86,0,0,0,5.3-1.57,13.14,13.14,0,0,0,3.3-3.49l18.66,1.93q-4.28,8.35-10.33,12t-17.35,3.63q-9.82,0-15.45-3.1a24,24,0,0,1-9.33-9.86,32.58,32.58,0,0,1-3.7-15.89q0-13,7.42-21t20.5-8q10.61,0,16.75,3.6a23.15,23.15,0,0,1,9.35,10.44q3.21,6.84,3.21,17.79v2.4ZM416.16,48.47q-0.56-6.16-3-8.82A8.08,8.08,0,0,0,406.9,37a8.3,8.3,0,0,0-7.21,4q-1.72,2.5-2.19,7.46h18.66Z"/><path class="cls-2" d="M455.19,43.61l-18.1-2.14a24.41,24.41,0,0,1,3-8.37,17,17,0,0,1,5.56-5.3,21.56,21.56,0,0,1,7.17-2.5,51.73,51.73,0,0,1,9.86-.89,70,70,0,0,1,13.68,1.07,16.8,16.8,0,0,1,8.61,4.46,15.91,15.91,0,0,1,3.82,6.65,26.63,26.63,0,0,1,1.4,8.22V69.28a33.21,33.21,0,0,0,.44,6.13,29.93,29.93,0,0,0,1.93,5.66H474.73a21.18,21.18,0,0,1-1.4-3.26,26.78,26.78,0,0,1-.65-3.52,24.64,24.64,0,0,1-7.4,5.74,27.86,27.86,0,0,1-11.68,2.29q-8.84,0-13.42-4.59a15.39,15.39,0,0,1-4.58-11.32A15.94,15.94,0,0,1,438.91,56Q442.21,52,451.1,50q10.65-2.4,13.82-3.37a59.61,59.61,0,0,0,6.7-2.53q0-3.91-1.44-5.48T465.1,37q-4.65,0-7,1.67Q456.31,40,455.19,43.61Zm16.43,11.17a82.3,82.3,0,0,1-8.14,2.76q-5.77,1.72-7.3,3.39a5.89,5.89,0,0,0,0,8,6.12,6.12,0,0,0,4.58,1.59,10.81,10.81,0,0,0,5.89-1.72,9.89,9.89,0,0,0,3.86-4.2,15.54,15.54,0,0,0,1.14-6.44V54.78Z"/><path class="cls-2" d="M491.94,65.68l18.8-2A10.49,10.49,0,0,0,514,69.08a8.89,8.89,0,0,0,5.58,1.62,8.72,8.72,0,0,0,5.91-1.82,4.22,4.22,0,0,0,1.63-3.38A3.91,3.91,0,0,0,525,61.94q-1.54-.89-8.14-2.19-9.86-1.93-13.7-3.57a14.76,14.76,0,0,1-6.47-5.55A15.6,15.6,0,0,1,494,41.72a15.77,15.77,0,0,1,2.84-9.43,16.94,16.94,0,0,1,7.82-5.91q5-2,13.35-2,8.84,0,13.05,1.51a16.78,16.78,0,0,1,7,4.7,25.23,25.23,0,0,1,4.68,8.61l-18,2a7,7,0,0,0-2.33-3.91,8.77,8.77,0,0,0-5.4-1.67,7,7,0,0,0-4.68,1.28A4,4,0,0,0,511,40a3.33,3.33,0,0,0,1.86,3.07q1.86,1,8.1,1.87,9.44,1.2,14.05,3.34a15.9,15.9,0,0,1,7.05,6.1,16.27,16.27,0,0,1,2.44,8.7,18.62,18.62,0,0,1-2.58,9.33,18,18,0,0,1-8.14,7.22q-5.56,2.68-15.15,2.68-13.54,0-19.28-4.33A19.69,19.69,0,0,1,491.94,65.68Z"/><path class="cls-2" d="M544,65.68l18.8-2A10.49,10.49,0,0,0,566,69.08a8.89,8.89,0,0,0,5.58,1.62,8.72,8.72,0,0,0,5.91-1.82,4.22,4.22,0,0,0,1.63-3.38A3.91,3.91,0,0,0,577,61.94q-1.54-.89-8.14-2.19-9.86-1.93-13.7-3.57a14.76,14.76,0,0,1-6.47-5.55A15.6,15.6,0,0,1,546,41.72a15.77,15.77,0,0,1,2.84-9.43,16.94,16.94,0,0,1,7.82-5.91q5-2,13.35-2,8.84,0,13.05,1.51a16.78,16.78,0,0,1,7,4.7,25.23,25.23,0,0,1,4.68,8.61l-18,2a7,7,0,0,0-2.33-3.91,8.77,8.77,0,0,0-5.4-1.67,7,7,0,0,0-4.68,1.28A4,4,0,0,0,563,40a3.33,3.33,0,0,0,1.86,3.07q1.86,1,8.1,1.87,9.44,1.2,14.05,3.34a15.9,15.9,0,0,1,7.05,6.1,16.27,16.27,0,0,1,2.44,8.7,18.62,18.62,0,0,1-2.58,9.33,18,18,0,0,1-8.14,7.22q-5.56,2.68-15.15,2.68-13.54,0-19.28-4.33A19.69,19.69,0,0,1,544,65.68Z"/><path class="cls-2" d="M651.38,81.08H633.7v-9a27.21,27.21,0,0,1-8,7.88,19.31,19.31,0,0,1-9.89,2.35q-7.82,0-12.26-5.24t-4.44-16.15V25.67h19V56.14q0,5.22,1.72,7.41a5.8,5.8,0,0,0,4.84,2.19,6.63,6.63,0,0,0,5.56-2.92q2.17-2.92,2.17-10.49V25.67h18.94V81.08Z"/><path class="cls-2" d="M656.86,25.67h17.73v9.08q2.56-5.9,5.28-8.11a10.3,10.3,0,0,1,6.72-2.22,18.39,18.39,0,0,1,9.17,2.92L689.9,42.47a13.62,13.62,0,0,0-5.3-1.56,6.39,6.39,0,0,0-5.77,3.44q-2.93,4.85-2.93,18.16V81.08h-19V25.67Z"/><path class="cls-2" d="M711.67,43.61l-18.1-2.14a24.4,24.4,0,0,1,3-8.37,17,17,0,0,1,5.56-5.3,21.55,21.55,0,0,1,7.16-2.5,51.76,51.76,0,0,1,9.86-.89,70.06,70.06,0,0,1,13.68,1.07,16.81,16.81,0,0,1,8.61,4.46,15.93,15.93,0,0,1,3.82,6.65,26.63,26.63,0,0,1,1.4,8.22V69.28a33,33,0,0,0,.44,6.13A29.63,29.63,0,0,0,749,81.08H731.21a21.34,21.34,0,0,1-1.39-3.26,26.71,26.71,0,0,1-.65-3.52,24.66,24.66,0,0,1-7.4,5.74,27.87,27.87,0,0,1-11.68,2.29q-8.84,0-13.42-4.59a15.4,15.4,0,0,1-4.58-11.32A16,16,0,0,1,695.38,56Q698.69,52,707.57,50q10.65-2.4,13.82-3.37a59.46,59.46,0,0,0,6.7-2.53q0-3.91-1.44-5.48T721.58,37q-4.65,0-7,1.67Q712.78,40,711.67,43.61Zm16.43,11.17A82.25,82.25,0,0,1,720,57.54q-5.77,1.72-7.3,3.39a5.88,5.88,0,0,0,0,8,6.13,6.13,0,0,0,4.58,1.59,10.81,10.81,0,0,0,5.88-1.72,9.9,9.9,0,0,0,3.86-4.2,15.54,15.54,0,0,0,1.14-6.44V54.78Z"/><path class="cls-2" d="M751.77,25.67H769.4v9a27.45,27.45,0,0,1,8-7.9,19.2,19.2,0,0,1,9.86-2.37q7.86,0,12.31,5.24T804,45.86V81.08H785V50.61q0-5.22-1.72-7.38a5.83,5.83,0,0,0-4.84-2.17A6.62,6.62,0,0,0,772.85,44q-2.14,2.92-2.14,10.49V81.08H751.77V25.67Z"/><path class="cls-2" d="M846,59.37l18,2.29A29.72,29.72,0,0,1,859.1,72.6a23.07,23.07,0,0,1-8.68,7.18q-5.28,2.55-13.42,2.56a44.42,44.42,0,0,1-13.1-1.64,22.2,22.2,0,0,1-9-5.32A26.73,26.73,0,0,1,809,66.74q-2.14-5-2.14-13.14,0-8.55,2.61-14.23a25.54,25.54,0,0,1,5.21-7.48A23.92,23.92,0,0,1,821.46,27q5.54-2.55,14.19-2.56,12.1,0,18.45,4.85T863,43.46l-17.82,2.66a9.44,9.44,0,0,0-3-5.35,10,10,0,0,0-13.54,2q-2.91,3.77-2.91,11.43,0,6.82,2.89,10.36a9.07,9.07,0,0,0,7.35,3.54,9.38,9.38,0,0,0,6.26-2.14A13,13,0,0,0,846,59.37Z"/><path class="cls-2" d="M921.35,58.64h-38q0.51,5.11,2.47,7.62a8.59,8.59,0,0,0,7.16,3.6,9.86,9.86,0,0,0,5.3-1.57,13.14,13.14,0,0,0,3.3-3.49l18.66,1.93q-4.28,8.35-10.33,12t-17.35,3.63q-9.82,0-15.45-3.1a24,24,0,0,1-9.33-9.86,32.59,32.59,0,0,1-3.7-15.89q0-13,7.42-21t20.5-8q10.61,0,16.75,3.6a23.15,23.15,0,0,1,9.35,10.44q3.21,6.84,3.21,17.79v2.4ZM902.09,48.47q-0.56-6.16-3-8.82a8.08,8.08,0,0,0-6.3-2.66,8.3,8.3,0,0,0-7.21,4q-1.72,2.5-2.19,7.46h18.66Z"/><polygon class="cls-1" points="791.72 144.56 802.29 144.56 802.29 186.66 791.72 186.66 791.72 144.56 791.72 144.56"/><polygon class="cls-1" points="805.87 144.56 816.45 144.56 816.45 186.66 805.87 186.66 805.87 144.56 805.87 144.56"/><path class="cls-1" d="M829.14,168.7a8.58,8.58,0,0,1,1.21-4.1,4.64,4.64,0,0,1,4-2.21,4.56,4.56,0,0,1,3.52,1.46,8.38,8.38,0,0,1,1.64,4.85H829.14ZM850.26,173a23,23,0,0,0-1.78-9.78,12.74,12.74,0,0,0-5.22-5.74q-3.42-2-9.33-2-7.28,0-11.42,4.43t-4.13,11.57a17.8,17.8,0,0,0,2.06,8.75,13.33,13.33,0,0,0,5.19,5.42,18.23,18.23,0,0,0,8.6,1.7q6.3,0,9.67-2a15.83,15.83,0,0,0,5.76-6.59l-10.41-1.09a7.61,7.61,0,0,1-1.83,1.94,5.5,5.5,0,0,1-3,.88,4.77,4.77,0,0,1-4-2,8.19,8.19,0,0,1-1.37-4.2h21.15V173h0Z"/><path class="cls-1" d="M880.63,186.66h-9.87v-4.94A15.22,15.22,0,0,1,866.3,186a10.89,10.89,0,0,1-5.5,1.28,8.47,8.47,0,0,1-6.82-2.88q-2.48-2.89-2.48-8.89V156.14h10.63v16.78a6.71,6.71,0,0,0,.95,4.08,3.24,3.24,0,0,0,2.68,1.21,3.7,3.7,0,0,0,3.08-1.61c0.8-1.08,1.2-3,1.2-5.78V156.14h10.58v30.52h0Z"/><path class="cls-1" d="M883.63,156.14h9.9v5a11.85,11.85,0,0,1,2.94-4.46,5.82,5.82,0,0,1,3.75-1.22,10.43,10.43,0,0,1,5.11,1.59l-3.27,8.34a7.68,7.68,0,0,0-3-.88,3.55,3.55,0,0,0-3.21,1.91q-1.64,2.68-1.64,10v10.23H883.63V156.14h0Z"/><path class="cls-1" d="M917.18,144.56v11.58H923v8.58h-5.81v10.79a6.11,6.11,0,0,0,.33,2.58,1.87,1.87,0,0,0,1.81,1,10.83,10.83,0,0,0,3.28-.74l0.78,8.06a30.8,30.8,0,0,1-7.31.95,11.69,11.69,0,0,1-5.82-1.11,6.66,6.66,0,0,1-2.76-3.4,21.84,21.84,0,0,1-.89-7.38V164.72h-3.88v-8.58h3.88v-5.59l10.59-6h0Z"/><path class="cls-1" d="M943.21,174a8.56,8.56,0,0,1-.63,3.56,5.51,5.51,0,0,1-2.16,2.33,6.07,6.07,0,0,1-3.27,1,3.42,3.42,0,0,1-2.54-.88,3.08,3.08,0,0,1-.87-2.26,3.12,3.12,0,0,1,.88-2.16q0.85-.92,4.06-1.87a44.54,44.54,0,0,0,4.53-1.53V174h0Zm-7.51-10.7a6.75,6.75,0,0,1,3.89-.92,3.71,3.71,0,0,1,2.82.86,4.34,4.34,0,0,1,.8,3,31.81,31.81,0,0,1-3.72,1.4c-1.18.36-3.75,1-7.69,1.86-3.31.73-5.57,1.83-6.8,3.33a8.74,8.74,0,0,0-1.84,5.72,8.43,8.43,0,0,0,2.55,6.25q2.56,2.53,7.47,2.52a15.84,15.84,0,0,0,6.5-1.26,13.89,13.89,0,0,0,4.12-3.16,14.88,14.88,0,0,0,.36,2,11.34,11.34,0,0,0,.78,1.79h9.94a17,17,0,0,1-1.09-3.11,18.88,18.88,0,0,1-.24-3.38V166.69a14.1,14.1,0,0,0-.79-4.53,8.66,8.66,0,0,0-2.12-3.66,9.41,9.41,0,0,0-4.8-2.46,39.5,39.5,0,0,0-7.63-.59,28.59,28.59,0,0,0-5.5.49,11.94,11.94,0,0,0-4,1.37,9.36,9.36,0,0,0-3.09,2.9,13.37,13.37,0,0,0-1.65,4.61L934.07,166a5.17,5.17,0,0,1,1.63-2.7"/><path class="cls-1" d="M985.41,186.66h-9.87v-4.94A15.4,15.4,0,0,1,971.1,186a11,11,0,0,1-5.51,1.28,8.49,8.49,0,0,1-6.82-2.88q-2.48-2.89-2.48-8.89V156.14h10.64v16.78a6.7,6.7,0,0,0,.95,4.08,3.23,3.23,0,0,0,2.68,1.21,3.7,3.7,0,0,0,3.08-1.61q1.2-1.62,1.2-5.78V156.14h10.57v30.52h0Z"/><polygon class="cls-1" points="987.71 156.14 1000.22 156.14 1004.62 164.64 1009.75 156.14 1021.37 156.14 1011.97 170.67 1022.03 186.66 1009.68 186.66 1004.62 176.82 998.66 186.66 987.21 186.66 997.2 170.67 987.71 156.14 987.71 156.14"/><path class="cls-1" d="M1054.91,174.71l10,1.23a16.36,16.36,0,0,1-2.73,6,13,13,0,0,1-4.83,4,17.31,17.31,0,0,1-7.48,1.4,25.14,25.14,0,0,1-7.3-.89,12.32,12.32,0,0,1-5-2.93,14.74,14.74,0,0,1-3.31-4.74,22.17,22.17,0,0,1,.27-15.06,14.21,14.21,0,0,1,2.91-4.11,13.33,13.33,0,0,1,3.77-2.71,19.17,19.17,0,0,1,7.9-1.4c4.49,0,7.92.89,10.28,2.67a14.14,14.14,0,0,1,5,7.8l-10,1.47a5.18,5.18,0,0,0-9.18-1.84c-1.08,1.37-1.61,3.46-1.61,6.24a8.64,8.64,0,0,0,1.61,5.68,5.08,5.08,0,0,0,4.09,1.93,5.35,5.35,0,0,0,3.48-1.15,7,7,0,0,0,2.1-3.56"/><path class="cls-1" d="M1077,165.46a4.62,4.62,0,0,1,3.81-2,4.45,4.45,0,0,1,3.66,1.94q1.48,1.93,1.48,5.89,0,4.26-1.45,6.18a4.63,4.63,0,0,1-7.52,0c-1-1.3-1.49-3.31-1.49-6s0.51-4.68,1.51-6m-7,18.14c2.74,2.5,6.32,3.73,10.75,3.73q7.45,0,11.67-4.49a16.11,16.11,0,0,0,4.22-11.53,16.41,16.41,0,0,0-3.4-10.54q-4.23-5.32-12.5-5.31-7.24,0-11.49,4.52a16.05,16.05,0,0,0-4.27,11.5,15.72,15.72,0,0,0,5,12.12"/><path class="cls-1" d="M1098.23,156.14h9.85v4.47a14.29,14.29,0,0,1,4.29-4,10.76,10.76,0,0,1,5.23-1.18,9.25,9.25,0,0,1,5.22,1.29,9.47,9.47,0,0,1,3.13,3.85,16.48,16.48,0,0,1,4.56-4.07,11,11,0,0,1,5.08-1.07,8.63,8.63,0,0,1,6.94,2.92q2.51,2.92,2.5,9.12v19.16h-10.59V169.3a5.26,5.26,0,0,0-.72-3.07,3.15,3.15,0,0,0-2.67-1.57,3.68,3.68,0,0,0-3,1.48,8,8,0,0,0-1.14,4.79v15.72h-10.58V169.88a11.39,11.39,0,0,0-.21-2.73,3.63,3.63,0,0,0-1.17-1.86,2.91,2.91,0,0,0-1.94-.69,3.62,3.62,0,0,0-3,1.51c-0.79,1-1.17,2.69-1.17,5v15.55h-10.58V156.14h0Z"/><path class="cls-2" d="M1033.2,182.23A5.2,5.2,0,1,1,1028,177a5.21,5.21,0,0,1,5.21,5.21"/><path class="cls-2" d="M788.7,148a5.71,5.71,0,1,1-5.7-5.71,5.71,5.71,0,0,1,5.7,5.71"/><path class="cls-1" d="M695.76,156.14h9.84v4.47a14.36,14.36,0,0,1,4.29-4,10.72,10.72,0,0,1,5.23-1.18,9.24,9.24,0,0,1,5.22,1.29,9.44,9.44,0,0,1,3.14,3.85,16.53,16.53,0,0,1,4.55-4.07,10.94,10.94,0,0,1,5.07-1.07,8.65,8.65,0,0,1,6.94,2.92q2.5,2.92,2.5,9.12v19.16H732V169.3a5.21,5.21,0,0,0-.73-3.07,3.14,3.14,0,0,0-2.67-1.57,3.66,3.66,0,0,0-3,1.48,7.9,7.9,0,0,0-1.15,4.79v15.72H713.8V169.88a11.18,11.18,0,0,0-.2-2.73,3.66,3.66,0,0,0-1.17-1.86,2.92,2.92,0,0,0-1.95-.69,3.6,3.6,0,0,0-3,1.51c-0.77,1-1.17,2.69-1.17,5v15.55H695.76V156.14h0Z"/><path class="cls-1" d="M754.76,168.7a8.58,8.58,0,0,1,1.22-4.1,4.63,4.63,0,0,1,4-2.21,4.51,4.51,0,0,1,3.51,1.46,8.35,8.35,0,0,1,1.65,4.85H754.76ZM775.88,173a22.83,22.83,0,0,0-1.8-9.78,12.67,12.67,0,0,0-5.21-5.74q-3.42-2-9.33-2-7.27,0-11.42,4.43T744,171.46a17.82,17.82,0,0,0,2.06,8.75,13.32,13.32,0,0,0,5.2,5.42,18.2,18.2,0,0,0,8.61,1.7q6.29,0,9.66-2a15.89,15.89,0,0,0,5.76-6.59l-10.41-1.09a7.59,7.59,0,0,1-1.83,1.94,5.48,5.48,0,0,1-2.95.88,4.79,4.79,0,0,1-4-2,8.15,8.15,0,0,1-1.37-4.2h21.15V173h0Z"/><path class="cls-1" d="M788.2,156.14v30.52H777.61V156.14A11.64,11.64,0,0,0,783,157.4a10.63,10.63,0,0,0,5.22-1.26"/><line class="cls-4" y1="114.08" x2="1145.02" y2="114.08"/><path class="cls-1" d="M130.9,183.19h15.3v3.32H126.66V155.14h4.24v28.05Z"/><path class="cls-1" d="M157.79,187a9.86,9.86,0,0,1-7.83-3.21,12.36,12.36,0,0,1-2.81-8.45v-0.95a12.1,12.1,0,0,1,2.9-8.31,9.09,9.09,0,0,1,7.08-3.29q4.68,0,7,2.91a12,12,0,0,1,2.34,7.74v2.24H151.56l-0.06.11a9.64,9.64,0,0,0,1.55,5.7,5.42,5.42,0,0,0,4.74,2.19,10.69,10.69,0,0,0,3.78-.61,8.46,8.46,0,0,0,2.79-1.69L166,184.1a10.19,10.19,0,0,1-3.3,2A13.14,13.14,0,0,1,157.79,187Zm-0.67-20.86a4.61,4.61,0,0,0-3.67,1.71,8.1,8.1,0,0,0-1.78,4.38l0,0.11h10.52V172a6.79,6.79,0,0,0-1.25-4.2A4.52,4.52,0,0,0,157.12,166.11Z"/><path class="cls-1" d="M187.05,183.65a5,5,0,0,0,3.43-1.3,4.12,4.12,0,0,0,1.46-3.2h3.84l0.06,0.13a6.69,6.69,0,0,1-2.59,5.35,9.88,9.88,0,0,1-13.79-1,12.89,12.89,0,0,1-2.67-8.32V174.4a12.84,12.84,0,0,1,2.68-8.28,9.15,9.15,0,0,1,7.57-3.35,8.8,8.8,0,0,1,6.39,2.41,7.65,7.65,0,0,1,2.4,5.92l0,0.13h-3.86a5.15,5.15,0,0,0-1.39-3.63,4.57,4.57,0,0,0-3.5-1.5,4.9,4.9,0,0,0-4.56,2.42,11.34,11.34,0,0,0-1.43,5.87v0.91a11.56,11.56,0,0,0,1.41,5.92A4.9,4.9,0,0,0,187.05,183.65Z"/><path class="cls-1" d="M197.69,174.64a12.83,12.83,0,0,1,2.8-8.52,9.39,9.39,0,0,1,7.61-3.35,9.49,9.49,0,0,1,7.66,3.34,12.79,12.79,0,0,1,2.81,8.53v0.47a12.77,12.77,0,0,1-2.8,8.53,10.43,10.43,0,0,1-15.27,0,12.75,12.75,0,0,1-2.81-8.52v-0.47Zm4.25,0.47a11.06,11.06,0,0,0,1.56,6.12,5.64,5.64,0,0,0,9.25,0,11,11,0,0,0,1.57-6.12v-0.47a11,11,0,0,0-1.58-6.1,5.19,5.19,0,0,0-4.64-2.43,5.12,5.12,0,0,0-4.6,2.43,11.08,11.08,0,0,0-1.56,6.1v0.47Z"/><path class="cls-1" d="M225.34,163.2l0.3,3.06a7.92,7.92,0,0,1,2.9-2.58,8.71,8.71,0,0,1,4.08-.92,7.21,7.21,0,0,1,4,1.08,6.52,6.52,0,0,1,2.51,3.23,8.72,8.72,0,0,1,2.92-3.16,7.64,7.64,0,0,1,4.21-1.15,7,7,0,0,1,5.62,2.45q2.07,2.44,2.07,7.36v13.94h-4.24v-14q0-3.45-1.19-4.88a4.32,4.32,0,0,0-3.53-1.43,4.5,4.5,0,0,0-3.52,1.51,6.57,6.57,0,0,0-1.58,3.81v15h-4.27v-14a7.65,7.65,0,0,0-1.22-4.79,4.22,4.22,0,0,0-3.5-1.52,5.83,5.83,0,0,0-3.19.8,5.16,5.16,0,0,0-1.92,2.24v17.26h-4.24V163.2h3.79Z"/><path class="cls-1" d="M277.78,175.74a12.85,12.85,0,0,1-2.41,8.13,8,8,0,0,1-6.66,3.09,9.24,9.24,0,0,1-3.78-.72,7.22,7.22,0,0,1-2.77-2.17v11.4h-4.24V163.2h3.25l0.67,3a7.71,7.71,0,0,1,2.84-2.56,8.49,8.49,0,0,1,4-.88,7.75,7.75,0,0,1,6.73,3.44,15.55,15.55,0,0,1,2.4,9.08v0.45Zm-4.24-.45a12.32,12.32,0,0,0-1.56-6.52,5.06,5.06,0,0,0-4.6-2.55,5.67,5.67,0,0,0-3.12.83,6.21,6.21,0,0,0-2.09,2.27v11.27a6,6,0,0,0,2.09,2.25,5.86,5.86,0,0,0,3.17.81,5.22,5.22,0,0,0,4.57-2.21,9.7,9.7,0,0,0,1.55-5.7v-0.45Z"/><path class="cls-1" d="M295.12,186.51q-0.22-1.06-.33-1.86a13.59,13.59,0,0,1-.14-1.63,9.89,9.89,0,0,1-3.09,2.81,7.91,7.91,0,0,1-4.1,1.13,7.62,7.62,0,0,1-5.55-1.86A6.85,6.85,0,0,1,280,180a6,6,0,0,1,2.7-5.23,12.63,12.63,0,0,1,7.34-1.88h4.61v-2.31a4.28,4.28,0,0,0-1.25-3.24,4.91,4.91,0,0,0-3.53-1.2,5.13,5.13,0,0,0-3.34,1,3.1,3.1,0,0,0-1.27,2.48l-4,0,0-.13a5.58,5.58,0,0,1,2.38-4.65,9.86,9.86,0,0,1,6.54-2.11,9.62,9.62,0,0,1,6.38,2,7.14,7.14,0,0,1,2.41,5.81v11.23a21.91,21.91,0,0,0,.13,2.41,12.41,12.41,0,0,0,.47,2.28h-4.37Zm-7-3.1a7.56,7.56,0,0,0,4.16-1.19,5.63,5.63,0,0,0,2.41-2.71v-3.79h-4.76a6.17,6.17,0,0,0-4.1,1.29,3.86,3.86,0,0,0-1.54,3,3.2,3.2,0,0,0,1,2.46A4.06,4.06,0,0,0,288.07,183.41Z"/><path class="cls-1" d="M313.88,166.95l-2.18-.13a4.86,4.86,0,0,0-2.83.8,5.11,5.11,0,0,0-1.78,2.24v16.66h-4.24V163.2h3.79l0.41,3.4a8.08,8.08,0,0,1,2.45-2.82,5.71,5.71,0,0,1,3.35-1,5.2,5.2,0,0,1,.9.08,6.31,6.31,0,0,1,.71.16Z"/><path class="cls-1" d="M330.41,186.51q-0.22-1.06-.33-1.86a13.59,13.59,0,0,1-.14-1.63,9.89,9.89,0,0,1-3.09,2.81,7.91,7.91,0,0,1-4.1,1.13,7.62,7.62,0,0,1-5.55-1.86,6.85,6.85,0,0,1-1.91-5.14,6,6,0,0,1,2.7-5.23,12.63,12.63,0,0,1,7.34-1.88h4.61v-2.31a4.28,4.28,0,0,0-1.25-3.24,4.91,4.91,0,0,0-3.53-1.2,5.13,5.13,0,0,0-3.34,1,3.1,3.1,0,0,0-1.27,2.48l-4,0,0-.13a5.58,5.58,0,0,1,2.38-4.65,9.86,9.86,0,0,1,6.54-2.11,9.62,9.62,0,0,1,6.38,2,7.14,7.14,0,0,1,2.41,5.81v11.23a21.91,21.91,0,0,0,.13,2.41,12.41,12.41,0,0,0,.47,2.28h-4.37Zm-7-3.1a7.56,7.56,0,0,0,4.16-1.19,5.63,5.63,0,0,0,2.41-2.71v-3.79h-4.76a6.17,6.17,0,0,0-4.1,1.29,3.86,3.86,0,0,0-1.54,3,3.2,3.2,0,0,0,1,2.46A4.06,4.06,0,0,0,323.37,183.41Z"/><path class="cls-1" d="M344,157.57v5.62h4.42v3.15H344V180.5a3.17,3.17,0,0,0,.68,2.31,2.45,2.45,0,0,0,1.8.67,4,4,0,0,0,.82-0.1,6,6,0,0,0,.75-0.21l0.58,2.91a3.78,3.78,0,0,1-1.4.64,7.07,7.07,0,0,1-1.83.25,5.5,5.5,0,0,1-4.12-1.56q-1.53-1.56-1.53-4.9V166.34h-3.71V163.2h3.71v-5.62H344Z"/><path class="cls-1" d="M360.45,187a9.86,9.86,0,0,1-7.83-3.21,12.36,12.36,0,0,1-2.81-8.45v-0.95a12.1,12.1,0,0,1,2.9-8.31,9.09,9.09,0,0,1,7.08-3.29q4.68,0,7,2.91a12,12,0,0,1,2.34,7.74v2.24H354.23l-0.06.11a9.64,9.64,0,0,0,1.55,5.7,5.42,5.42,0,0,0,4.74,2.19,10.69,10.69,0,0,0,3.78-.61,8.46,8.46,0,0,0,2.79-1.69l1.66,2.76a10.19,10.19,0,0,1-3.3,2A13.14,13.14,0,0,1,360.45,187Zm-0.67-20.86a4.61,4.61,0,0,0-3.67,1.71,8.1,8.1,0,0,0-1.78,4.38l0,0.11h10.52V172a6.79,6.79,0,0,0-1.25-4.2A4.52,4.52,0,0,0,359.79,166.11Z"/><path class="cls-1" d="M386.5,183.06a7.89,7.89,0,0,1-2.82,2.89,7.72,7.72,0,0,1-4,1,7.49,7.49,0,0,1-5.95-2.43q-2.13-2.43-2.13-7.58V163.2h4.24V177q0,3.73,1.1,5.13a4.09,4.09,0,0,0,3.43,1.4,7,7,0,0,0,3.74-.92,5.73,5.73,0,0,0,2.23-2.6V163.2h4.24v23.31h-3.81Z"/><path class="cls-1" d="M405.6,166.95l-2.18-.13a4.86,4.86,0,0,0-2.83.8,5.11,5.11,0,0,0-1.78,2.24v16.66h-4.24V163.2h3.79l0.41,3.4a8.08,8.08,0,0,1,2.45-2.82,5.71,5.71,0,0,1,3.35-1,5.2,5.2,0,0,1,.9.08,6.31,6.31,0,0,1,.71.16Z"/><path class="cls-1" d="M415.6,175.29a15.56,15.56,0,0,1,2.4-9.07,7.74,7.74,0,0,1,6.73-3.45,8.35,8.35,0,0,1,3.63.75,7.45,7.45,0,0,1,2.7,2.2V152.9h4.24v33.61h-3.25l-0.65-3a7.56,7.56,0,0,1-2.82,2.54,8.44,8.44,0,0,1-3.9.86,8,8,0,0,1-6.68-3.09,12.85,12.85,0,0,1-2.41-8.13v-0.45Zm4.24,0.45a9.9,9.9,0,0,0,1.44,5.66,5,5,0,0,0,4.48,2.12,5.63,5.63,0,0,0,3.19-.86,6.44,6.44,0,0,0,2.11-2.41V169.36a6.55,6.55,0,0,0-2.12-2.29,5.61,5.61,0,0,0-3.14-.85,4.85,4.85,0,0,0-4.51,2.52,13,13,0,0,0-1.45,6.55v0.45Z"/><path class="cls-1" d="M443.35,159.94L441.17,166h-2.09l0-5.71v-5.17h4.24v4.8Z"/><path class="cls-1" d="M460.08,186.51q-0.22-1.06-.33-1.86a13.59,13.59,0,0,1-.14-1.63,9.89,9.89,0,0,1-3.09,2.81,7.91,7.91,0,0,1-4.1,1.13,7.62,7.62,0,0,1-5.55-1.86A6.85,6.85,0,0,1,445,180a6,6,0,0,1,2.7-5.23,12.63,12.63,0,0,1,7.34-1.88h4.61v-2.31a4.28,4.28,0,0,0-1.25-3.24,4.91,4.91,0,0,0-3.53-1.2,5.13,5.13,0,0,0-3.34,1,3.1,3.1,0,0,0-1.27,2.48l-4,0,0-.13a5.58,5.58,0,0,1,2.38-4.65,9.86,9.86,0,0,1,6.54-2.11,9.62,9.62,0,0,1,6.38,2,7.14,7.14,0,0,1,2.41,5.81v11.23a21.91,21.91,0,0,0,.13,2.41,12.41,12.41,0,0,0,.47,2.28h-4.37Zm-7-3.1a7.56,7.56,0,0,0,4.16-1.19,5.63,5.63,0,0,0,2.41-2.71v-3.79h-4.76a6.17,6.17,0,0,0-4.1,1.29,3.86,3.86,0,0,0-1.54,3,3.2,3.2,0,0,0,1,2.46A4.06,4.06,0,0,0,453,183.41Z"/><path class="cls-1" d="M481.36,180.24a2.83,2.83,0,0,0-1.07-2.28,10.29,10.29,0,0,0-4-1.55,17,17,0,0,1-6.32-2.48,5,5,0,0,1-2.21-4.27,6.15,6.15,0,0,1,2.42-4.87,10.7,10.7,0,0,1,12.7.13,6.17,6.17,0,0,1,2.35,5l0,0.13H481.1a3.67,3.67,0,0,0-1.33-2.74,4.74,4.74,0,0,0-3.35-1.23,4.83,4.83,0,0,0-3.35,1,3.16,3.16,0,0,0-1.11,2.41,2.56,2.56,0,0,0,1,2.13,10.6,10.6,0,0,0,4,1.38,16.71,16.71,0,0,1,6.51,2.56,5.17,5.17,0,0,1,2.22,4.33,6.14,6.14,0,0,1-2.51,5.06,10.36,10.36,0,0,1-6.56,2,10.25,10.25,0,0,1-7-2.26,6.46,6.46,0,0,1-2.43-5.28l0-.13h4.05a3.92,3.92,0,0,0,1.68,3.31,6.5,6.5,0,0,0,3.68,1,5.81,5.81,0,0,0,3.54-1A2.94,2.94,0,0,0,481.36,180.24Z"/><path class="cls-1" d="M502.23,180.24a2.83,2.83,0,0,0-1.07-2.28,10.29,10.29,0,0,0-4-1.55,17,17,0,0,1-6.32-2.48,5,5,0,0,1-2.21-4.27,6.15,6.15,0,0,1,2.42-4.87,10.7,10.7,0,0,1,12.7.13,6.18,6.18,0,0,1,2.35,5l0,0.13H502a3.67,3.67,0,0,0-1.33-2.74,4.74,4.74,0,0,0-3.35-1.23,4.83,4.83,0,0,0-3.35,1,3.16,3.16,0,0,0-1.11,2.41,2.56,2.56,0,0,0,1,2.13,10.6,10.6,0,0,0,4,1.38,16.7,16.7,0,0,1,6.51,2.56,5.16,5.16,0,0,1,2.22,4.33A6.14,6.14,0,0,1,504,185a10.36,10.36,0,0,1-6.56,2,10.25,10.25,0,0,1-7-2.26,6.46,6.46,0,0,1-2.43-5.28l0-.13H492a3.92,3.92,0,0,0,1.68,3.31,6.5,6.5,0,0,0,3.68,1,5.81,5.81,0,0,0,3.54-1A2.94,2.94,0,0,0,502.23,180.24Z"/><path class="cls-1" d="M524.35,183.06a7.9,7.9,0,0,1-2.82,2.89,7.72,7.72,0,0,1-4,1,7.49,7.49,0,0,1-5.95-2.43q-2.13-2.43-2.13-7.58V163.2h4.24V177q0,3.73,1.1,5.13a4.09,4.09,0,0,0,3.43,1.4,7,7,0,0,0,3.74-.92,5.73,5.73,0,0,0,2.23-2.6V163.2h4.24v23.31h-3.81Z"/><path class="cls-1" d="M543.45,166.95l-2.18-.13a4.86,4.86,0,0,0-2.83.8,5.11,5.11,0,0,0-1.78,2.24v16.66h-4.25V163.2h3.79l0.41,3.4a8.08,8.08,0,0,1,2.45-2.82,5.71,5.71,0,0,1,3.35-1,5.19,5.19,0,0,1,.9.08,6.3,6.3,0,0,1,.71.16Z"/><path class="cls-1" d="M560,186.51q-0.22-1.06-.33-1.86a13.7,13.7,0,0,1-.14-1.63,9.89,9.89,0,0,1-3.09,2.81,7.91,7.91,0,0,1-4.1,1.13,7.62,7.62,0,0,1-5.55-1.86,6.86,6.86,0,0,1-1.91-5.14,6,6,0,0,1,2.7-5.23,12.63,12.63,0,0,1,7.34-1.88h4.61v-2.31a4.28,4.28,0,0,0-1.25-3.24,4.91,4.91,0,0,0-3.53-1.2,5.13,5.13,0,0,0-3.34,1,3.1,3.1,0,0,0-1.27,2.48l-4,0,0-.13a5.58,5.58,0,0,1,2.38-4.65,9.87,9.87,0,0,1,6.54-2.11,9.63,9.63,0,0,1,6.38,2,7.14,7.14,0,0,1,2.41,5.81v11.23a21.91,21.91,0,0,0,.13,2.41,12.33,12.33,0,0,0,.47,2.28H560Zm-7-3.1a7.56,7.56,0,0,0,4.16-1.19,5.62,5.62,0,0,0,2.41-2.71v-3.79h-4.76a6.17,6.17,0,0,0-4.1,1.29,3.86,3.86,0,0,0-1.54,3,3.2,3.2,0,0,0,1,2.46A4.06,4.06,0,0,0,552.94,183.41Z"/><path class="cls-1" d="M571.51,163.2l0.3,3.47a8.46,8.46,0,0,1,2.92-2.88,7.79,7.79,0,0,1,4-1,7.61,7.61,0,0,1,5.84,2.21q2.07,2.21,2.07,6.82v14.72h-4.24V171.88q0-3.08-1.22-4.37a4.88,4.88,0,0,0-3.72-1.29,6.58,6.58,0,0,0-3.33.79,5.71,5.71,0,0,0-2.17,2.21v17.3h-4.25V163.2h3.79Z"/><path class="cls-1" d="M599.86,183.65a5,5,0,0,0,3.43-1.3,4.12,4.12,0,0,0,1.46-3.2h3.83l0.07,0.13a6.7,6.7,0,0,1-2.59,5.35,9.88,9.88,0,0,1-13.79-1,12.89,12.89,0,0,1-2.67-8.32V174.4a12.84,12.84,0,0,1,2.68-8.28,9.14,9.14,0,0,1,7.57-3.35,8.8,8.8,0,0,1,6.39,2.41,7.66,7.66,0,0,1,2.4,5.92l0,0.13h-3.86a5.14,5.14,0,0,0-1.39-3.63,4.57,4.57,0,0,0-3.5-1.5,4.9,4.9,0,0,0-4.56,2.42,11.34,11.34,0,0,0-1.43,5.87v0.91a11.55,11.55,0,0,0,1.41,5.92A4.9,4.9,0,0,0,599.86,183.65Z"/><path class="cls-1" d="M621.14,187a9.86,9.86,0,0,1-7.83-3.21,12.35,12.35,0,0,1-2.81-8.45v-0.95a12.1,12.1,0,0,1,2.9-8.31,9.09,9.09,0,0,1,7.08-3.29q4.67,0,7,2.91a12,12,0,0,1,2.34,7.74v2.24H614.91l-0.06.11a9.64,9.64,0,0,0,1.55,5.7,5.42,5.42,0,0,0,4.74,2.19,10.69,10.69,0,0,0,3.78-.61,8.46,8.46,0,0,0,2.79-1.69l1.66,2.76a10.19,10.19,0,0,1-3.3,2A13.13,13.13,0,0,1,621.14,187Zm-0.67-20.86a4.61,4.61,0,0,0-3.67,1.71A8.1,8.1,0,0,0,615,172.2l0,0.11h10.51V172a6.79,6.79,0,0,0-1.25-4.2A4.52,4.52,0,0,0,620.47,166.11Z"/><path class="cls-1" d="M640.17,175.29a15.56,15.56,0,0,1,2.4-9.07,7.74,7.74,0,0,1,6.73-3.45,8.34,8.34,0,0,1,3.63.75,7.45,7.45,0,0,1,2.7,2.2V152.9h4.25v33.61h-3.25l-0.65-3a7.56,7.56,0,0,1-2.82,2.54,8.44,8.44,0,0,1-3.9.86,8,8,0,0,1-6.68-3.09,12.85,12.85,0,0,1-2.41-8.13v-0.45Zm4.25,0.45a9.89,9.89,0,0,0,1.44,5.66,5,5,0,0,0,4.48,2.12,5.63,5.63,0,0,0,3.19-.86,6.45,6.45,0,0,0,2.11-2.41V169.36a6.55,6.55,0,0,0-2.12-2.29,5.61,5.61,0,0,0-3.13-.85,4.85,4.85,0,0,0-4.51,2.52,13,13,0,0,0-1.45,6.55v0.45Z"/><path class="cls-1" d="M673.66,187a9.86,9.86,0,0,1-7.83-3.21,12.35,12.35,0,0,1-2.81-8.45v-0.95a12.1,12.1,0,0,1,2.9-8.31,9.09,9.09,0,0,1,7.08-3.29q4.67,0,7,2.91a12,12,0,0,1,2.34,7.74v2.24H667.44l-0.06.11a9.64,9.64,0,0,0,1.55,5.7,5.42,5.42,0,0,0,4.74,2.19,10.69,10.69,0,0,0,3.78-.61,8.46,8.46,0,0,0,2.79-1.69l1.66,2.76a10.19,10.19,0,0,1-3.3,2A13.13,13.13,0,0,1,673.66,187ZM673,166.11a4.61,4.61,0,0,0-3.67,1.71,8.1,8.1,0,0,0-1.78,4.38l0,0.11H678.1V172a6.79,6.79,0,0,0-1.25-4.2A4.52,4.52,0,0,0,673,166.11Z"/></svg>